<mxfile host="Electron" modified="2023-08-31T18:48:59.021Z" agent="Mozilla/5.0 (Windows NT 10.0; Win64; x64) AppleWebKit/537.36 (KHTML, like Gecko) draw.io/21.6.5 Chrome/114.0.5735.243 Electron/25.3.1 Safari/537.36" etag="WU4Sw8SoBsz7RJ1f0iN3" version="21.6.5" type="device">
  <diagram name="Page-1" id="q_wVknq4FCawdSFccCfa">
    <mxGraphModel dx="2074" dy="1180" grid="1" gridSize="10" guides="1" tooltips="1" connect="1" arrows="1" fold="1" page="1" pageScale="1" pageWidth="850" pageHeight="1100" math="0" shadow="0">
      <root>
        <mxCell id="0" />
        <mxCell id="1" parent="0" />
        <mxCell id="eAHeUNQns_pMhjONrrmw-18" value="" style="rounded=0;whiteSpace=wrap;html=1;fillColor=#fff2cc;strokeColor=#d6b656;" vertex="1" parent="1">
          <mxGeometry x="490" y="970" width="330" height="230" as="geometry" />
        </mxCell>
        <mxCell id="eAHeUNQns_pMhjONrrmw-20" value="Integration" style="edgeStyle=none;rounded=0;orthogonalLoop=1;jettySize=auto;html=1;startArrow=classic;startFill=1;" edge="1" parent="1" source="ga9MKrRhZ99mPaaQuCAq-2" target="eAHeUNQns_pMhjONrrmw-18">
          <mxGeometry relative="1" as="geometry" />
        </mxCell>
        <mxCell id="ga9MKrRhZ99mPaaQuCAq-2" value="" style="rounded=0;whiteSpace=wrap;html=1;fillColor=#fff2cc;strokeColor=#d6b656;" parent="1" vertex="1">
          <mxGeometry x="440" y="80" width="500" height="790" as="geometry" />
        </mxCell>
        <mxCell id="ga9MKrRhZ99mPaaQuCAq-10" style="edgeStyle=none;rounded=0;orthogonalLoop=1;jettySize=auto;html=1;" parent="1" source="ga9MKrRhZ99mPaaQuCAq-3" target="ga9MKrRhZ99mPaaQuCAq-8" edge="1">
          <mxGeometry relative="1" as="geometry" />
        </mxCell>
        <mxCell id="ga9MKrRhZ99mPaaQuCAq-20" style="edgeStyle=none;rounded=0;orthogonalLoop=1;jettySize=auto;html=1;" parent="1" source="ga9MKrRhZ99mPaaQuCAq-3" target="ga9MKrRhZ99mPaaQuCAq-15" edge="1">
          <mxGeometry relative="1" as="geometry" />
        </mxCell>
        <mxCell id="ga9MKrRhZ99mPaaQuCAq-23" style="edgeStyle=none;rounded=0;orthogonalLoop=1;jettySize=auto;html=1;" parent="1" source="ga9MKrRhZ99mPaaQuCAq-3" target="ga9MKrRhZ99mPaaQuCAq-21" edge="1">
          <mxGeometry relative="1" as="geometry" />
        </mxCell>
        <mxCell id="ga9MKrRhZ99mPaaQuCAq-3" value="Hamilton Citizen" style="shape=umlActor;verticalLabelPosition=bottom;verticalAlign=top;html=1;outlineConnect=0;" parent="1" vertex="1">
          <mxGeometry x="230" y="520" width="30" height="60" as="geometry" />
        </mxCell>
        <mxCell id="ga9MKrRhZ99mPaaQuCAq-4" value="Admin Assistant" style="shape=umlActor;verticalLabelPosition=bottom;verticalAlign=top;html=1;outlineConnect=0;" parent="1" vertex="1">
          <mxGeometry x="230" y="1045" width="30" height="60" as="geometry" />
        </mxCell>
        <mxCell id="ga9MKrRhZ99mPaaQuCAq-29" style="edgeStyle=none;rounded=0;orthogonalLoop=1;jettySize=auto;html=1;" parent="1" source="ga9MKrRhZ99mPaaQuCAq-5" target="ga9MKrRhZ99mPaaQuCAq-28" edge="1">
          <mxGeometry relative="1" as="geometry" />
        </mxCell>
        <mxCell id="eAHeUNQns_pMhjONrrmw-17" style="edgeStyle=none;rounded=0;orthogonalLoop=1;jettySize=auto;html=1;" edge="1" parent="1" source="ga9MKrRhZ99mPaaQuCAq-5" target="eAHeUNQns_pMhjONrrmw-16">
          <mxGeometry relative="1" as="geometry" />
        </mxCell>
        <mxCell id="ga9MKrRhZ99mPaaQuCAq-5" value="Restaurant Manager" style="shape=umlActor;verticalLabelPosition=bottom;verticalAlign=top;html=1;outlineConnect=0;" parent="1" vertex="1">
          <mxGeometry x="1070" y="670" width="30" height="60" as="geometry" />
        </mxCell>
        <mxCell id="ga9MKrRhZ99mPaaQuCAq-12" style="edgeStyle=none;rounded=0;orthogonalLoop=1;jettySize=auto;html=1;" parent="1" source="ga9MKrRhZ99mPaaQuCAq-6" target="ga9MKrRhZ99mPaaQuCAq-11" edge="1">
          <mxGeometry relative="1" as="geometry" />
        </mxCell>
        <mxCell id="ga9MKrRhZ99mPaaQuCAq-14" style="edgeStyle=none;rounded=0;orthogonalLoop=1;jettySize=auto;html=1;" parent="1" source="ga9MKrRhZ99mPaaQuCAq-6" target="ga9MKrRhZ99mPaaQuCAq-13" edge="1">
          <mxGeometry relative="1" as="geometry" />
        </mxCell>
        <mxCell id="ga9MKrRhZ99mPaaQuCAq-6" value="Line Cook" style="shape=umlActor;verticalLabelPosition=bottom;verticalAlign=top;html=1;outlineConnect=0;" parent="1" vertex="1">
          <mxGeometry x="1070" y="365" width="30" height="60" as="geometry" />
        </mxCell>
        <mxCell id="eAHeUNQns_pMhjONrrmw-8" value="extend" style="edgeStyle=none;rounded=0;orthogonalLoop=1;jettySize=auto;html=1;dashed=1;dashPattern=12 12;" edge="1" parent="1" source="ga9MKrRhZ99mPaaQuCAq-8" target="eAHeUNQns_pMhjONrrmw-7">
          <mxGeometry x="-0.2" y="-30" relative="1" as="geometry">
            <mxPoint as="offset" />
          </mxGeometry>
        </mxCell>
        <mxCell id="ga9MKrRhZ99mPaaQuCAq-8" value="Order food" style="ellipse;whiteSpace=wrap;html=1;fillColor=#f8cecc;strokeColor=#b85450;" parent="1" vertex="1">
          <mxGeometry x="555" y="210" width="80" height="50" as="geometry" />
        </mxCell>
        <mxCell id="ga9MKrRhZ99mPaaQuCAq-11" value="List impending food orders" style="ellipse;whiteSpace=wrap;html=1;fillColor=#f8cecc;strokeColor=#b85450;" parent="1" vertex="1">
          <mxGeometry x="750" y="310" width="100" height="55" as="geometry" />
        </mxCell>
        <mxCell id="ga9MKrRhZ99mPaaQuCAq-17" style="edgeStyle=none;rounded=0;orthogonalLoop=1;jettySize=auto;html=1;" parent="1" source="ga9MKrRhZ99mPaaQuCAq-13" target="ga9MKrRhZ99mPaaQuCAq-15" edge="1">
          <mxGeometry relative="1" as="geometry" />
        </mxCell>
        <mxCell id="ga9MKrRhZ99mPaaQuCAq-13" value="Cook food complete" style="ellipse;whiteSpace=wrap;html=1;fillColor=#f8cecc;strokeColor=#b85450;" parent="1" vertex="1">
          <mxGeometry x="765" y="400" width="70" height="50" as="geometry" />
        </mxCell>
        <mxCell id="ga9MKrRhZ99mPaaQuCAq-15" value="Receive order status update" style="ellipse;whiteSpace=wrap;html=1;fillColor=#f8cecc;strokeColor=#b85450;" parent="1" vertex="1">
          <mxGeometry x="580" y="290" width="100" height="50" as="geometry" />
        </mxCell>
        <mxCell id="eAHeUNQns_pMhjONrrmw-4" style="rounded=0;orthogonalLoop=1;jettySize=auto;html=1;" edge="1" parent="1" source="ga9MKrRhZ99mPaaQuCAq-1" target="eAHeUNQns_pMhjONrrmw-3">
          <mxGeometry relative="1" as="geometry" />
        </mxCell>
        <mxCell id="eAHeUNQns_pMhjONrrmw-9" style="edgeStyle=none;rounded=0;orthogonalLoop=1;jettySize=auto;html=1;" edge="1" parent="1" source="ga9MKrRhZ99mPaaQuCAq-1" target="eAHeUNQns_pMhjONrrmw-7">
          <mxGeometry relative="1" as="geometry" />
        </mxCell>
        <mxCell id="eAHeUNQns_pMhjONrrmw-14" style="edgeStyle=none;rounded=0;orthogonalLoop=1;jettySize=auto;html=1;endArrow=block;endFill=0;dashed=1;dashPattern=12 12;startSize=6;endSize=18;" edge="1" parent="1" source="ga9MKrRhZ99mPaaQuCAq-1" target="ga9MKrRhZ99mPaaQuCAq-3">
          <mxGeometry relative="1" as="geometry" />
        </mxCell>
        <mxCell id="ga9MKrRhZ99mPaaQuCAq-1" value="Community Member" style="shape=umlActor;verticalLabelPosition=bottom;verticalAlign=top;html=1;outlineConnect=0;" parent="1" vertex="1">
          <mxGeometry x="230" y="305" width="30" height="60" as="geometry" />
        </mxCell>
        <mxCell id="eAHeUNQns_pMhjONrrmw-5" style="rounded=0;orthogonalLoop=1;jettySize=auto;html=1;dashed=1;dashPattern=12 12;" edge="1" parent="1" source="ga9MKrRhZ99mPaaQuCAq-21" target="eAHeUNQns_pMhjONrrmw-3">
          <mxGeometry relative="1" as="geometry" />
        </mxCell>
        <mxCell id="eAHeUNQns_pMhjONrrmw-6" value="include" style="edgeLabel;html=1;align=center;verticalAlign=middle;resizable=0;points=[];" vertex="1" connectable="0" parent="eAHeUNQns_pMhjONrrmw-5">
          <mxGeometry x="-0.2879" y="1" relative="1" as="geometry">
            <mxPoint x="20" as="offset" />
          </mxGeometry>
        </mxCell>
        <mxCell id="ga9MKrRhZ99mPaaQuCAq-21" value="Pay for food" style="ellipse;whiteSpace=wrap;html=1;fillColor=#f8cecc;strokeColor=#b85450;" parent="1" vertex="1">
          <mxGeometry x="550" y="550" width="90" height="50" as="geometry" />
        </mxCell>
        <mxCell id="ga9MKrRhZ99mPaaQuCAq-27" value="include {if enough points&lt;br&gt;obtained}" style="edgeStyle=none;rounded=0;orthogonalLoop=1;jettySize=auto;html=1;dashed=1;dashPattern=12 12;" parent="1" source="ga9MKrRhZ99mPaaQuCAq-21" target="ga9MKrRhZ99mPaaQuCAq-26" edge="1">
          <mxGeometry x="-0.2387" y="-17" relative="1" as="geometry">
            <mxPoint as="offset" />
          </mxGeometry>
        </mxCell>
        <mxCell id="ga9MKrRhZ99mPaaQuCAq-26" value="Use loyalty points" style="ellipse;whiteSpace=wrap;html=1;fillColor=#f8cecc;strokeColor=#b85450;" parent="1" vertex="1">
          <mxGeometry x="810" y="560" width="90" height="70" as="geometry" />
        </mxCell>
        <mxCell id="ga9MKrRhZ99mPaaQuCAq-28" value="Check sales reports" style="ellipse;whiteSpace=wrap;html=1;fillColor=#f8cecc;strokeColor=#b85450;" parent="1" vertex="1">
          <mxGeometry x="715" y="640" width="120" height="80" as="geometry" />
        </mxCell>
        <mxCell id="ga9MKrRhZ99mPaaQuCAq-36" value="System Application (ATCO-Eats)" style="text;html=1;strokeColor=none;fillColor=none;align=center;verticalAlign=middle;whiteSpace=wrap;rounded=0;" parent="1" vertex="1">
          <mxGeometry x="630" y="80" width="120" height="30" as="geometry" />
        </mxCell>
        <mxCell id="eAHeUNQns_pMhjONrrmw-3" value="Student mealplan" style="ellipse;whiteSpace=wrap;html=1;fillColor=#f8cecc;strokeColor=#b85450;" vertex="1" parent="1">
          <mxGeometry x="580" y="395" width="80" height="60" as="geometry" />
        </mxCell>
        <mxCell id="eAHeUNQns_pMhjONrrmw-7" value="Green box mealbox" style="ellipse;whiteSpace=wrap;html=1;fillColor=#f8cecc;strokeColor=#b85450;" vertex="1" parent="1">
          <mxGeometry x="510" y="120" width="80" height="50" as="geometry" />
        </mxCell>
        <mxCell id="eAHeUNQns_pMhjONrrmw-21" style="edgeStyle=none;rounded=0;orthogonalLoop=1;jettySize=auto;html=1;" edge="1" parent="1" source="eAHeUNQns_pMhjONrrmw-16" target="ga9MKrRhZ99mPaaQuCAq-24">
          <mxGeometry relative="1" as="geometry" />
        </mxCell>
        <mxCell id="eAHeUNQns_pMhjONrrmw-16" value="Submit catering invoice" style="ellipse;whiteSpace=wrap;html=1;fillColor=#f8cecc;strokeColor=#b85450;" vertex="1" parent="1">
          <mxGeometry x="520" y="740" width="120" height="80" as="geometry" />
        </mxCell>
        <mxCell id="eAHeUNQns_pMhjONrrmw-19" value="Mosaic" style="text;html=1;strokeColor=none;fillColor=none;align=center;verticalAlign=middle;whiteSpace=wrap;rounded=0;" vertex="1" parent="1">
          <mxGeometry x="595" y="980" width="120" height="30" as="geometry" />
        </mxCell>
        <mxCell id="ga9MKrRhZ99mPaaQuCAq-24" value="Process payment for catering" style="ellipse;whiteSpace=wrap;html=1;fillColor=#f8cecc;strokeColor=#b85450;" parent="1" vertex="1">
          <mxGeometry x="520" y="1050" width="110" height="50" as="geometry" />
        </mxCell>
        <mxCell id="ga9MKrRhZ99mPaaQuCAq-25" style="edgeStyle=none;rounded=0;orthogonalLoop=1;jettySize=auto;html=1;" parent="1" source="ga9MKrRhZ99mPaaQuCAq-4" target="ga9MKrRhZ99mPaaQuCAq-24" edge="1">
          <mxGeometry relative="1" as="geometry" />
        </mxCell>
      </root>
    </mxGraphModel>
  </diagram>
</mxfile>
